<svg xmlns="http://www.w3.org/2000/svg" xmlns:xlink="http://www.w3.org/1999/xlink" preserveAspectRatio="xMidYMid meet" version="1.0" viewBox="-0.4 -3.0 589.9 584.7" zoomAndPan="magnify" style="fill: rgb(0, 0, 0);" original_string_length="1858" width="160.24836761428904px" height="158.89033060060865px"><g id="__id3_s0666y91f"><path d="M147.7,334.1c48.8-93.1,97.1-185.7,145.8-278.1c8.6-16.3,18.9-31.7,28.6-47.3c6.8-10.9,14.8-11.7,23.4-2.1 c2.9,3.3,5.2,7.1,6.9,11.1c27.1,81.7,81.4,256.6,96.9,295.5c0.9,2.1,2,4.2,3.2,6.1c22.7-39.6,45-79.3,68.2-118.4 c12.6-21.3,26.5-41.8,40.7-62.1c3.1-4.5,10.9-10.1,14.5-8.9c5.1,1.6,10.7,8.6,11.8,14.2c1.8,8.8,1.1,18.4-0.2,27.4 c-11.8,80.4-23.9,160.7-36.2,241c-7.7,50-15.6,100-23.7,149.9c-1.7,10.5-6.2,14.7-18.3,9.8c-10.4-4.2-22.5-5.2-34-5.7 c-64.1-2.5-128.2-6.6-192.2-5.9c-60.6,0.6-121.2,6-181.7,10.2c-24.1,1.7-48.1,5.4-72,8.8c-14.8,2.1-18.1-5.3-19-18.2 c-7.4-98.7-10.8-197.5-10-296.4c0.2-33.2,5.2-65.4,7.6-98.2c0.3-3.4,2.9-9,5-9.3c3.5-0.5,8.9,1.5,10.9,4.3c9.4,12.9,19,26,26.8,39.9 C77.6,250,111.5,293,147.7,334.1z M562,177.9c-1.2,0.8-2.2,1.8-3.1,3c-26.1,44.9-52.4,89.8-78,134.9c-7.7,13.5-13.1,28.2-20.7,41.7 c-2.1,3.8-8.4,6.6-13,7c-2.4,0.2-6.6-5.3-7.9-9c-7.5-20.9-14-42.1-21.5-63c-13.1-36.6-28.3-72.6-39.6-109.7 c-7.9-25.8-14.2-53.6-21.1-79.8c-6.9-25.8-12.3-50.6-21.3-75.8l-5.6-0.2c-19.1,37.1-38.4,74-57.2,111.3 c-36.9,73.3-73.7,146.7-110.3,220.1c-6,12-15,12.9-23.2,1.9c-25.9-34.6-52.1-69-77.4-104c-10.5-14.5-19.1-30.4-28.5-45.7 c-3.1-5-6.1-10.1-9.2-15.2c0,0-8.4,243.8,2.5,366.4c159.1-27.6,319.1-29.1,481.9-15.5C526.7,423.1,544.4,300.3,562,177.9L562,177.9z M310.3,362.2c5.2-6.4,8.6-12.8,13.8-16.6c4-2.9,11.1-4.6,15.5-3.1c3.5,1.1,7.5,8.3,7,12.2c-1.4,11-3.9,21.7-7.7,32.1 c-4.2,11.8-9.7,23.2-15.4,34.5c-5.4,10.6-17.1,13.2-25.2,4.9c-17.4-17.8-29.5-38.6-28.8-64.6c0.3-11.3,1.7-23.7,15.6-26.1 c13.6-2.4,17.6,9.2,22.1,18.9C308.4,356.5,309.1,358.8,310.3,362.2z" style="fill: rgb(255, 77, 20);"/></g></svg>
