<svg width="2002" height="97" viewBox="0 0 2002 97" fill="none" xmlns="http://www.w3.org/2000/svg">
<path d="M1 95.4701L131 20.4145C174.316 -4.59405 227.684 -4.59407 271 20.4145L331 55.0555C374.316 80.0641 427.684 80.0641 471 55.0555L531 20.4145C574.316 -4.59405 627.684 -4.59407 671 20.4145L731 55.0555C774.316 80.0641 827.684 80.0641 871 55.0555L931 20.4145C974.316 -4.59405 1027.68 -4.59407 1071 20.4145L1131 55.0555C1174.32 80.0641 1227.68 80.0641 1271 55.0555L1331 20.4145C1374.32 -4.59405 1427.68 -4.59407 1471 20.4145L1531 55.0555C1574.32 80.0641 1627.68 80.0641 1671 55.0555L1731 20.4145C1774.32 -4.59405 1827.68 -4.59407 1871 20.4145L2001 95.4701" stroke="#FF4D14" stroke-width="2"/>
</svg>
