<svg width="1002" height="53" viewBox="0 0 1002 53" fill="none" xmlns="http://www.w3.org/2000/svg">
<path d="M1 51.735L76 8.43377C91.47 -0.497872 110.53 -0.497881 126 8.43376L176 37.3013C191.47 46.2329 210.53 46.2329 226 37.3013L276 8.43377C291.47 -0.497872 310.53 -0.497881 326 8.43376L376 37.3013C391.47 46.2329 410.53 46.2329 426 37.3013L476 8.43377C491.47 -0.497872 510.53 -0.497881 526 8.43376L576 37.3013C591.47 46.2329 610.53 46.2329 626 37.3013L676 8.43377C691.47 -0.497872 710.53 -0.497881 726 8.43376L776 37.3013C791.47 46.2329 810.53 46.2329 826 37.3013L876 8.43377C891.47 -0.497872 910.53 -0.497881 926 8.43376L1001 51.735" stroke="#FF4D14" stroke-width="2"/>
</svg>
