<svg xmlns="http://www.w3.org/2000/svg" xmlns:xlink="http://www.w3.org/1999/xlink" preserveAspectRatio="xMidYMid meet" version="1.0" viewBox="-1.5 -1.7 569.9 859.9" zoomAndPan="magnify" style="fill: rgb(255, 77, 20);" original_string_length="1368" width="66.57031390610032px" height="100.43942098113381px"><g id="__id2_s0666y91f"><path d="M539.1,38c-12.7-23.6-32.2-35.6-58.5-37.6c-27.4-2.1-53.7,4-76,18.5c-34.5,22.4-66.9,47.9-99.9,72.6 c-9,6.7-16.6,15.1-27,24.6c-11-19.8-19.2-36.8-29.3-52.6c-25.2-39.2-59-52-103.8-39.2c-44.4,12.6-75.2,41.9-96.3,82 C7,184.7-1.5,269.8,0.2,356.2C2.4,468.5,26.3,577,68.4,680.8c16.6,41,36.8,81.4,61.7,117.8c28,40.9,84.6,59.6,122.3,2 c4-6.2,7.4-12.8,10.9-19.3c28.5-52,55.7-104.7,85.8-155.7c59.8-101.3,116.5-204.3,159.5-313.9c20.4-52,36.2-106,49.9-160.2 C568.4,112.3,558.3,73.8,539.1,38z M176.1,729.3c-5.6-8-9.9-12.3-12.2-17.5C116.6,603,87.6,490.4,85.4,370.9 c-1.3-73.1,8.7-143.4,34.6-211.4c5.2-13.6,12.5-27.3,21.9-38.2c18.7-21.6,42.8-16.4,49.7,11c5.9,23.4,8.4,47.9,9.6,72 c0.5,9.5-5.2,20.1-10.3,29c-29,51.2-49,105.2-56.3,163.9c-5.3,42.8-0.1,84.4,8.8,125.9c1.1,5.2,2.8,10.2,4.9,15.1 c17.1,40.4,37.7,77,96.5,75.9L176.1,729.3z M467.5,161.1c-34.6,88.7-68.9,177.7-116.9,260.5c-15.3,26.4-28.4,54-46,88 c-3-13.2-5.3-18.5-5.4-23.9c-1.3-75-1.2-150.1-3.8-225.1c-0.9-26.1,4.5-47.4,21.7-67c28.6-32.9,57.9-64.8,94.6-88.9 c22-14.4,31.8-17.8,62-19.8C480.7,112.3,476.7,137.5,467.5,161.1z" style="fill: inherit;"/></g></svg>
