<svg xmlns="http://www.w3.org/2000/svg" xmlns:xlink="http://www.w3.org/1999/xlink" preserveAspectRatio="xMidYMid meet" version="1.0" viewBox="-1.5 -0.4 309.8 511.7" zoomAndPan="magnify" style="fill: rgb(255, 77, 20);" original_string_length="1661" width="77.53607652597867px" height="128.06258885672153px"><g id="__id0_sq46ri6t7q"><path d="M306.5,27.7C304,12.6,290.4,0.5,275.1,0c-9.4-0.4-18.8,1-27.7,4c-25.3,9-42.7,28.2-58.4,48.9 c-20.6,27.3-34.6,58.1-45.2,90.5c-1.7,5.3-3.9,10.4-6.4,16.7c-7.5-15.6-13.8-29.8-21-43.4c-10.6-20-23.6-38-43.6-49.8 C45.8,51,18.3,62.3,8.5,88.6c-8.6,23.1-10,47-7.2,71.2c3,26.1,9.2,51.4,15.8,76.9C32,294.3,52.3,349.9,76.9,404 c5.8,12.8,8,23.5-1.1,35.4c-6.5,8.5-9.6,20.5-17.5,26.7c-9.3,7.2-9.4,15.6-10.3,24.7c-0.9,8.5,3.2,13.6,11.4,15.9 c4.8,1.3,9.5,2.9,15.3,4.6c4.3-4.3,10.1-8.4,13.4-14c5.7-9.8,9.8-20.6,14.7-31.2l12.3,5.8l27.1-13.7c-2.5-10-3.7-20-7.6-28.8 c-3.1-7-2.2-12.2,1.1-18c9.1-16.1,18.1-32.2,27.2-48.4c19.4-34.4,39.2-68.6,58-103.3c19.6-36.2,39-72.6,57-109.7 c13.9-28.6,25.6-58.3,29.3-90.2C308.3,49,308.1,38.3,306.5,27.7z M262.7,82.7c-9.7,26.1-19.3,52.6-32.2,77.2 C198.7,220.3,165,279.8,132,339.6c-5.4,9.8-10.9,19.5-16.3,29.3c-2,3.6-4.2,7.2-7.2,12.5c-6.4-15.2-12.3-28.5-17.6-42 C74.7,298.2,61.1,256,50.2,213.2c-5.9-23.3-10.5-46.8-11.9-70.9c-1-18.3,1.8-31.4,9-43.7c8.9,0.6,14.9,6.5,19.4,13.1 c8.8,12.7,17.4,25.6,24.3,39.3c6.2,12.2,10.1,25.5,14.7,38.4c2.9,8.1,5.8,16.3,3.7,25.1c-0.1,0.4-0.1,0.9,0,1.3 c0.4,6.6,17.7,32.5,24.2,34.2c6.9,1.9,14.2,2.1,22.7,3.1c3.9-8.4,8.3-17,11.8-25.9c0.8-1.9-1.9-5.1-2.7-7.8 c-1.1-3.4-3.4-7.5-2.5-10.4c12.6-39.2,23-79.3,44.6-115.1c10.8-17.8,23.2-34.2,39.9-46.8c6.2-4.7,12.6-8.9,21.7-7.3 C272.2,55.1,267.7,69.3,262.7,82.7L262.7,82.7z" style="fill: inherit;"/></g></svg>