<svg width="302" height="21" viewBox="0 0 302 21" fill="none" xmlns="http://www.w3.org/2000/svg">
<path d="M0.935333 19.7411L15.9353 7.15458C24.6106 -0.124828 37.2601 -0.124827 45.9353 7.15458V7.15458C54.6106 14.434 67.2601 14.434 75.9353 7.15458V7.15458C84.6106 -0.124827 97.2601 -0.124827 105.935 7.15458V7.15458C114.611 14.434 127.26 14.434 135.935 7.15458V7.15458C144.611 -0.124827 157.26 -0.124827 165.935 7.15458V7.15458C174.611 14.434 187.26 14.434 195.935 7.15458V7.15458C204.611 -0.124827 217.26 -0.124827 225.935 7.15458V7.15458C234.611 14.434 247.26 14.434 255.935 7.15458V7.15458C264.611 -0.124827 277.26 -0.124825 285.935 7.15458L300.935 19.7411" stroke="#FF4D14" stroke-width="2"/>
</svg>
